<svg width="213" height="170" viewBox="0 0 213 170" fill="none" xmlns="http://www.w3.org/2000/svg">
<path opacity="0.15" d="M66.6108 38.4047L66.621 38.3918L66.631 38.3788C73.2867 29.6752 75.639 21.5919 72.8577 14.3607C71.5221 10.8879 69.5569 8.08231 66.9331 6.01092C64.3104 3.94037 61.1046 2.66258 57.3765 2.13C49.5784 1.01596 42.3361 5.26624 35.6747 13.9703C22.5316 30.1504 13.4043 47.1239 8.32826 64.89L8.32278 64.9092L8.31781 64.9285C3.77778 82.5842 1.5 99.2608 1.5 114.953C1.5 131.692 5.04803 144.854 12.3479 154.24L12.3765 154.277L12.4072 154.312C20.258 163.209 30.9756 167.608 44.3755 167.608C56.7529 167.608 66.9332 163.726 74.7752 155.884L74.7924 155.867L74.8089 155.85C82.618 147.52 86.4988 137.111 86.4988 124.732C86.4988 112.846 82.6105 102.93 74.7934 95.1032C67.8109 87.6319 58.4836 83.5295 46.9494 82.7094C48.4283 75.8009 50.5449 68.6697 53.3029 61.3151C56.25 53.4561 60.6793 45.819 66.6108 38.4047ZM171.828 82.7094C173.307 75.8009 175.424 68.6697 178.182 61.3151C181.129 53.4561 185.558 45.819 191.49 38.4047L191.5 38.3918L191.51 38.3788C198.166 29.6752 200.518 21.5919 197.737 14.3607C196.401 10.8879 194.436 8.08231 191.812 6.01092C189.189 3.94037 185.984 2.66259 182.255 2.13C174.457 1.01596 167.215 5.26629 160.553 13.9705C147.411 30.1505 138.283 47.1239 133.207 64.89L133.202 64.9092L133.197 64.9285C128.657 82.5842 126.379 99.2608 126.379 114.953C126.379 131.692 129.927 144.854 137.227 154.24L137.255 154.277L137.286 154.312C145.137 163.209 155.855 167.608 169.254 167.608C181.632 167.608 191.812 163.726 199.654 155.884L199.671 155.867L199.688 155.85C207.497 147.52 211.378 137.111 211.378 124.732C211.378 112.846 207.489 102.93 199.672 95.1033C192.69 87.6319 183.363 83.5295 171.828 82.7094Z" stroke="#3C6FFF" stroke-width="3"/>
</svg>
